<svg id="be7af983-a051-4441-a791-3fa533ff4f82" data-name="Layer 1" xmlns="http://www.w3.org/2000/svg" viewBox="0 0 720 504"><defs><style>.ae4af171-8e77-41f8-a53a-f0686a97a6d6{fill:#929497;}.ab6362eb-0d1a-4606-920c-8cec80c9658c{fill:#f18a00;}.ab9788a4-b345-4e81-93db-e30d8cbd8388{fill:#fff;}</style></defs><title>dab-tab-ilo-vape-product-oregon-logo</title><path class="ae4af171-8e77-41f8-a53a-f0686a97a6d6" d="M360.11,180.66a23.74,23.74,0,0,1-11.69-2.88l-52.7-30.43C289.05,143.51,284,134.8,284,127.11V66.25c0-7.69,5-16.4,11.69-20.24l52.7-30.43c6.66-3.85,16.71-3.85,23.38,0L424.5,46c6.66,3.85,11.69,12.55,11.69,20.24v60.86c0,7.69-5,16.4-11.69,20.24l-52.7,30.43A23.8,23.8,0,0,1,360.11,180.66Zm0-158.52a14.45,14.45,0,0,0-7,1.6l-52.7,30.43c-3.72,2.15-7,7.79-7,12.08v60.86c0,4.29,3.26,9.93,7,12.08l52.7,30.43c3.72,2.14,10.24,2.14,13.95,0l52.7-30.43c3.72-2.15,7-7.79,7-12.08V66.25c0-4.29-3.26-9.93-7-12.08h0l-52.7-30.43A14.38,14.38,0,0,0,360.11,22.14Z"/><path class="ab6362eb-0d1a-4606-920c-8cec80c9658c" d="M436.19,66.25V127.1c0,7.7-5,16.4-11.69,20.25l-52.7,30.43a25.09,25.09,0,0,1-23.38,0l-52.71-30.43C289.05,143.5,284,134.8,284,127.1V66.25c0-7.69,5-16.4,11.68-20.24l52.71-30.43c6.66-3.85,16.71-3.85,23.38,0L424.5,46C431.17,49.85,436.19,58.56,436.19,66.25Z"/><path class="ab9788a4-b345-4e81-93db-e30d8cbd8388" d="M121.54,210.52H62.67v90.87H83.75v0h37.79a20.08,20.08,0,0,0,20.08-20.08V230.6A20.08,20.08,0,0,0,121.54,210.52Zm-1,64.91a4.85,4.85,0,0,1-4.86,4.86H83.75v-48.7h31.93a4.85,4.85,0,0,1,4.86,4.86Z"/><path class="ab9788a4-b345-4e81-93db-e30d8cbd8388" d="M298,210H260.2V163.92l-21.09,12V280.76a20.08,20.08,0,0,0,20.08,20.08H298a20.08,20.08,0,0,0,20.08-20.08V230.09A20.08,20.08,0,0,0,298,210Zm-1,65.36a4.41,4.41,0,0,1-4.4,4.41h-28a4.41,4.41,0,0,1-4.4-4.41V235.48a4.41,4.41,0,0,1,4.4-4.41h28a4.41,4.41,0,0,1,4.4,4.41Z"/><path class="ab9788a4-b345-4e81-93db-e30d8cbd8388" d="M209.73,211.08H172.52l-12.28,21.06h48.49v9.68H170.94a20.08,20.08,0,0,0-20.08,20.08v18.86a20.08,20.08,0,0,0,20.08,20.08h38.79a20.08,20.08,0,0,0,20.08-20.08v-49.6A20.08,20.08,0,0,0,209.73,211.08Zm-1,64.11a4.59,4.59,0,0,1-4.59,4.59H176.53a4.59,4.59,0,0,1-4.59-4.59v-8.46a4.58,4.58,0,0,1,4.59-4.58h27.61a4.58,4.58,0,0,1,4.59,4.58Z"/><path class="ab9788a4-b345-4e81-93db-e30d8cbd8388" d="M543,231.76H517.31a5.53,5.53,0,0,0-5.53,5.53v37.65a5.53,5.53,0,0,0,5.53,5.53H543a5.53,5.53,0,0,0,5.52-5.53V237.29A5.53,5.53,0,0,0,543,231.76Zm26.61-1v50.67a20.08,20.08,0,0,1-20.08,20.08H510.78a20.08,20.08,0,0,1-20.08-20.08V178.82l21.08-13.26V210.7h37.79A20.08,20.08,0,0,1,569.65,230.78Z"/><path class="ab9788a4-b345-4e81-93db-e30d8cbd8388" d="M423.53,268.8v7.62a4,4,0,0,0,4,4.05h28.7a4,4,0,0,0,4-4.05V268.8a4,4,0,0,0-4-4.05h-28.7A4,4,0,0,0,423.53,268.8Zm-21.09-6.21a20.08,20.08,0,0,1,20.08-20.08h37.79v-9.68h-49.5l12.27-21.06h38.23a20.08,20.08,0,0,1,20.08,20.08v49.6a20.08,20.08,0,0,1-20.08,20.08H422.52a20.08,20.08,0,0,1-20.08-20.08Z"/><path class="ab9788a4-b345-4e81-93db-e30d8cbd8388" d="M580.84,301.62l11.75-21.07h43.83V267H599.13a20.08,20.08,0,0,1-20.08-20.08l-.24-14.54a20.09,20.09,0,0,1,20.08-20.08h56.73l-10.87,20.22H599.89V247h37.79a20.09,20.09,0,0,1,20.08,20.09v14.48a20.08,20.08,0,0,1-20.08,20.08Z"/><path class="ab9788a4-b345-4e81-93db-e30d8cbd8388" d="M393.85,211.55H335L322.78,232.8l32.2-.13v69.72a21.08,21.08,0,0,0,21.08-21.09V238.15a5.54,5.54,0,0,1,5.53-5.53l19.06.18,12.19-21.25Z"/><path class="ab9788a4-b345-4e81-93db-e30d8cbd8388" d="M668.59,213.33H664.8V224.1h-1.47V213.33h-3.78v-1.12h9ZM683,224.1h-1.46V213.45h-.06l-4.1,10.65h-1l-4.1-10.65h-.05V224.1h-1.48V212.21h2.72L676.9,221H677l3.34-8.78H683Z"/></svg>